<svg xmlns="http://www.w3.org/2000/svg" width="24px" height="24px" viewBox="0 0 24 24">
  <path
    d="M 12.707031 13.066406 C 12.707031 11.445312 14.535156 10.457031 15.945312 11.316406 L 21.59375 14.75 C 22.921875 15.558594 22.921875 17.441406 21.59375 18.25 L 15.945312 21.683594 C 14.535156 22.542969 12.707031 21.554688 12.707031 19.933594 Z M 15.195312 12.480469 C 14.726562 12.195312 14.117188 12.527344 14.117188 13.066406 L 14.117188 19.933594 C 14.117188 20.472656 14.726562 20.804688 15.195312 20.519531 L 20.847656 17.082031 C 21.289062 16.8125 21.289062 16.1875 20.847656 15.917969 Z M 15.195312 12.480469 "
    fill="#bcbec4" />
  <path
    d="M 2.117188 12.375 C 2.117188 7.4375 6.226562 3.4375 11.292969 3.4375 C 16.363281 3.4375 20.46875 7.4375 20.46875 12.375 C 20.46875 12.398438 20.46875 12.421875 20.46875 12.445312 L 21.832031 13.273438 C 21.867188 12.964844 21.882812 12.660156 21.882812 12.375 C 21.882812 6.679688 17.140625 2.0625 11.292969 2.0625 C 5.445312 2.0625 0.707031 6.679688 0.707031 12.375 C 0.707031 13.96875 1.238281 16.0625 1.929688 17.503906 C 2.039062 17.734375 2.28125 17.875 2.542969 17.875 L 11.292969 17.875 L 11.292969 16.5 L 3.019531 16.5 C 2.5 15.246094 2.117188 13.601562 2.117188 12.375 Z M 2.117188 12.375 "
    fill="#bcbec4" />
  <path
    d="M 11.292969 14.574219 L 11.292969 13.199219 C 10.671875 13.199219 10.164062 12.707031 10.164062 12.101562 C 10.164062 11.492188 10.671875 11 11.292969 11 C 11.507812 11 11.710938 11.058594 11.878906 11.160156 C 12.148438 10.765625 12.5 10.433594 12.902344 10.183594 C 12.675781 10.003906 12.421875 9.863281 12.140625 9.765625 L 12.140625 5.5 C 12.140625 5.042969 11.761719 4.675781 11.292969 4.675781 C 10.824219 4.675781 10.445312 5.042969 10.445312 5.5 L 10.445312 9.765625 C 9.460938 10.105469 8.753906 11.023438 8.753906 12.101562 C 8.753906 13.46875 9.890625 14.574219 11.292969 14.574219 Z M 11.292969 14.574219 "
    fill="#bcbec4" />
</svg>