<svg xmlns="http://www.w3.org/2000/svg" width="24px" height="24px" viewBox="0 0 24 24">
    <path
      d="M 18.234375 10.804688 C 18.625 10.492188 18.683594 9.925781 18.375 9.539062 C 18.0625 9.152344 17.496094 9.089844 17.109375 9.398438 L 13.390625 12.386719 C 12.984375 12.140625 12.507812 12 12 12 C 10.507812 12 9.300781 13.207031 9.300781 14.699219 C 9.300781 16.191406 10.507812 17.398438 12 17.398438 C 13.492188 17.398438 14.699219 16.191406 14.699219 14.699219 C 14.699219 14.375 14.640625 14.0625 14.539062 13.773438 Z M 13.199219 14.699219 C 13.199219 15.363281 12.664062 15.898438 12 15.898438 C 11.335938 15.898438 10.800781 15.363281 10.800781 14.699219 C 10.800781 14.039062 11.335938 13.5 12 13.5 C 12.664062 13.5 13.199219 14.039062 13.199219 14.699219 Z M 13.199219 14.699219 "
      fill="#bcbec4"/>
    <path
      d="M 12 5.25 C 6.613281 5.25 2.25 9.613281 2.25 15 C 2.25 16.335938 2.65625 18.132812 3.207031 19.5 L 20.792969 19.5 C 21.34375 18.132812 21.75 16.335938 21.75 15 C 21.75 9.613281 17.386719 5.25 12 5.25 Z M 0.75 15 C 0.75 8.785156 5.785156 3.75 12 3.75 C 18.214844 3.75 23.25 8.785156 23.25 15 C 23.25 16.742188 22.683594 19.019531 21.949219 20.59375 C 21.832031 20.847656 21.574219 21 21.296875 21 L 2.703125 21 C 2.425781 21 2.167969 20.847656 2.050781 20.59375 C 1.316406 19.019531 0.75 16.742188 0.75 15 Z M 0.75 15 "
      fill="#bcbec4"/>
</svg>